<svg width="646" height="224" viewBox="0 0 646 224" fill="none" xmlns="http://www.w3.org/2000/svg">
<path fill-rule="evenodd" clip-rule="evenodd" d="M158.828 76.2951C158.623 76.6276 125.604 150.519 124.699 152.672C124.567 152.985 126.085 153.149 128.766 153.11L133.042 153.049L135.511 145.86C136.869 141.907 139.305 135.297 140.925 131.172L143.87 123.672L157.628 123.539L171.385 123.406L174.017 129.789C176.244 135.192 181.927 150.159 182.581 152.346C182.734 152.857 184.251 153.038 188.885 153.096C194.106 153.161 194.954 153.063 194.748 152.422C194.616 152.009 187.227 134.684 178.329 113.922C162.191 76.2691 162.145 76.1711 160.622 76.0186C159.781 75.9341 158.975 76.0586 158.828 76.2951ZM367.75 113.797C358.465 134.628 350.774 152.009 350.659 152.422C350.484 153.045 351.155 153.172 354.641 153.172H358.832L360.455 148.172C361.347 145.422 363.781 138.728 365.863 133.297L369.649 123.422H383.307C396.115 123.422 396.996 123.48 397.463 124.353C398.311 125.937 404.793 142.387 406.751 147.922L408.608 153.172H414.58C420.116 153.172 420.534 153.105 420.312 152.258C420.181 151.756 412.802 134.375 403.914 113.633L387.754 75.9216H386.193H384.631L367.75 113.797ZM3.5 115.297V153.172H8.5H13.5L13.501 135.922L13.502 118.672L20.876 118.668C26.902 118.665 29.027 118.459 32.5 117.545C41.799 115.098 48.213 110.489 50.5595 104.57C51.5285 102.126 51.7115 100.726 51.729 95.6361C51.749 89.8906 51.6775 89.4596 50.245 86.6576C46.46 79.2571 39.731 77.4216 16.388 77.4216H3.5V115.297ZM66.001 115.254L66.0015 153.172H71.0015H76.001L76.0005 134.797L76 116.422L77.875 116.458C79.624 116.492 80.036 116.835 84 121.56C88.464 126.881 103.541 146.443 106.451 150.69L108.15 153.172H114.826C118.497 153.172 121.498 153.059 121.497 152.922C121.495 152.784 119.578 150.377 117.236 147.573C114.894 144.768 108.247 136.461 102.463 129.112L91.9465 115.751L96.6115 114.211C104.665 111.554 109.405 108.02 112.007 102.733C115.942 94.7401 113.758 85.0696 107.123 81.1101C102.102 78.1131 99.505 77.7451 81.875 77.5301L66 77.3371L66.001 115.254ZM206.5 115.17V153.022L221.125 152.795C237.177 152.545 239.697 152.16 244.795 149.172C253.995 143.781 258.429 131.48 254.437 122.422C252.403 117.805 246.144 113.605 239.906 112.669L237.586 112.321L241.461 110.381C245.914 108.152 249.93 104.278 251.653 100.547C253.239 97.1126 253.251 88.6026 251.673 85.6716C250.358 83.2281 248.905 81.8631 246.14 80.4756C241.323 78.0576 239.167 77.7921 222.375 77.5486L206.5 77.3181V115.17ZM273 115.402V153.172H278.25H283.5V134.372V115.571L288.077 115.247C293.997 114.826 318.503 114.826 324.423 115.247L329 115.571V134.372V153.172H334H339V115.395V77.6171H334H329V93.1961V108.775L325.174 109.098C320.249 109.515 291.29 109.513 286.875 109.096L283.5 108.777V93.1811V77.5851L278.25 77.6091L273 77.6326V115.402ZM416.118 80.9841L416.14 84.5471L418.945 84.2261C420.488 84.0496 425.856 83.7616 430.875 83.5866L440 83.2676V118.269V153.27H445H450V118.27V83.2701L458.625 83.5841C463.369 83.7566 468.543 84.0471 470.125 84.2296L473 84.5616V80.9916V77.4216H444.548H416.095L416.118 80.9841ZM28.917 82.4286C37.9805 83.6056 42.608 89.9441 41.068 99.0721C40.3705 103.208 39.087 105.835 36.5 108.422C32.5745 112.347 27.606 113.922 19.145 113.922H13.5V98.2081C13.5 83.6636 13.565 82.4781 14.375 82.2661C15.9885 81.8446 25.212 81.9476 28.917 82.4286ZM95.894 83.3736C99.147 84.8346 102.148 88.1276 103.001 91.1726C103.985 94.6871 103.429 99.7476 101.714 102.899C98.335 109.107 91.784 111.909 80.625 111.918L76 111.922V96.8801V81.8391L84.625 82.0126C92.412 82.1696 93.507 82.3021 95.894 83.3736ZM234.173 83.0986C239.611 84.7911 242.438 88.2146 242.873 93.6356C243.532 101.844 238.506 107.988 229.6 109.864C228.143 110.171 224.712 110.422 221.975 110.422H217V96.0991V81.7761L224.375 82.0606C228.742 82.2286 232.738 82.6521 234.173 83.0986ZM163.712 104.965L169.421 118.172L158.137 118.306C151.93 118.38 146.762 118.35 146.651 118.239C146.54 118.129 148.982 112.059 152.079 104.751C155.175 97.4426 157.775 91.5296 157.856 91.6106C157.937 91.6921 160.572 97.7011 163.712 104.965ZM389.444 104.967C392.541 112.142 394.98 118.109 394.862 118.227C394.744 118.345 389.575 118.38 383.375 118.306L372.103 118.172L377.674 105.047C380.739 97.8281 383.374 91.9216 383.529 91.9216C383.684 91.9216 386.346 97.7921 389.444 104.967ZM227.49 115.445C235.998 116.318 240.591 118.654 243.25 123.46C244.636 125.966 244.75 126.552 244.75 131.172C244.75 136.94 243.753 139.669 240.431 142.991C236.472 146.95 231.588 148.422 222.408 148.422H217V131.672V114.922H219.697C221.181 114.922 224.687 115.157 227.49 115.445ZM0 168.422V170.422H238.5H477V168.422V166.422H238.5H0V168.422ZM14.75 185.951C8.969 187.827 4.872 192.043 3.1745 197.865C1.9735 201.985 2.4115 209.347 4.0715 212.945C6.4395 218.076 10.2185 221.272 15.618 222.709C20.5535 224.023 28.038 223.417 32.071 221.378C33.646 220.581 33.918 220.18 34.087 218.41C34.3615 215.527 33.5015 214.988 31.302 216.666C24.411 221.922 15.1305 220.463 11.357 213.53C7.924 207.222 8.7915 197.05 13.1505 192.503C15.7595 189.781 18.257 188.742 22.25 188.715C26.041 188.691 27.7165 189.326 30.645 191.896C32.6155 193.627 33.3775 193.342 34.0625 190.62C34.917 187.225 34.969 187.309 31.25 186.105C26.598 184.599 19.132 184.53 14.75 185.951ZM68.506 195.523C65.9285 201.38 62.173 209.762 60.16 214.15C58.147 218.537 56.5 222.306 56.5 222.525C56.5 222.743 57.8255 222.922 59.446 222.922C62.2495 222.922 62.407 222.856 62.7065 221.547C62.88 220.791 63.9675 217.641 65.1225 214.547L67.2235 208.922H73.0725H78.921L81.4605 215.37C82.8575 218.916 84 222.066 84 222.37C84 222.726 85.398 222.922 87.9385 222.922H91.8765L88.693 215.789C86.942 211.866 83.303 203.373 80.606 196.914C74.069 181.261 74.7475 181.339 68.506 195.523ZM217.422 192.161C217.599 199.641 216.736 220.725 216.195 222.134C215.941 222.796 216.362 222.922 218.822 222.922L221.75 222.923L221.624 209.797L221.497 196.672L226.518 201.922C229.28 204.809 234.834 210.828 238.861 215.297C244.249 221.276 246.483 223.422 247.322 223.422H248.461L248.355 210.547C248.298 203.465 248.439 194.916 248.669 191.547L249.087 185.422H246.544H244L243.981 198.297L243.962 211.172L241.606 208.651C240.31 207.264 234.879 201.414 229.538 195.651C222.392 187.94 219.486 185.133 218.538 185.024L217.25 184.876L217.422 192.161ZM349.531 194.552C347.211 199.843 343.443 208.297 341.156 213.34C338.87 218.382 337 222.601 337 222.715C337 222.829 338.293 222.921 339.875 222.919L342.75 222.917L344.448 218.044C345.381 215.364 346.557 212.208 347.061 211.031L347.978 208.89L353.804 209.031L359.63 209.172L362.286 215.922L364.942 222.672L368.721 222.818C370.8 222.898 372.5 222.835 372.5 222.679C372.5 222.522 371.851 221.106 371.057 219.532C369.595 216.634 358.907 191.661 357.26 187.297C356.505 185.295 356.159 184.923 355.057 184.927C353.84 184.931 353.459 185.594 349.531 194.552ZM459.12 185.589C456.854 186.411 454.166 188.656 453.161 190.566C452.034 192.708 452.027 198.121 453.148 200.252C454.392 202.616 457.223 204.698 461.586 206.456C467.911 209.006 469.923 212.332 467.522 216.27C464.906 220.56 459.674 220.727 456.072 216.634C453.822 214.079 452.65 213.824 452.218 215.797C452.052 216.553 451.711 217.824 451.458 218.621C451.206 219.419 451 220.14 451 220.225C451 220.31 452.069 221.008 453.375 221.776C455.547 223.052 456.177 223.172 460.75 223.172C464.922 223.172 466.082 222.993 467.75 222.093C471.998 219.8 474.149 216.137 474.164 211.172C474.179 206.018 472.219 203.69 465.594 200.994C460.646 198.98 458.628 197.361 458.196 195.061C457.68 192.308 459.145 189.881 461.897 188.93C463.892 188.24 464.175 188.258 465.897 189.18C466.936 189.736 468.079 190.881 468.5 191.786C469.724 194.419 471.073 193.965 472.156 190.556C473.179 187.338 473.056 187.097 469.641 185.618C467.696 184.776 461.409 184.759 459.12 185.589ZM118.25 204.196V222.922H128.75H139.25V220.39V217.857L137.75 218.114C136.925 218.255 133.745 218.521 130.684 218.706L125.118 219.043L124.754 212C124.553 208.127 124.554 200.578 124.755 195.225L125.12 185.492L121.684 185.481L118.25 185.47V204.196ZM167.25 204.23V222.922H177.529H187.807V220.378C187.807 217.907 187.771 217.843 186.509 218.095C185.795 218.238 182.708 218.513 179.65 218.707L174.089 219.058L173.762 216.365C173.582 214.884 173.506 211.872 173.592 209.672L173.75 205.672L180.066 205.675L186.381 205.679L186.344 203.233L186.307 200.786L180.204 201.125L174.1 201.465L173.757 198.972C173.569 197.602 173.576 194.971 173.773 193.127L174.133 189.774L180.816 190.076L187.5 190.378V187.967V185.555L177.375 185.547L167.25 185.538V204.23ZM279.75 204.194V222.922L288.25 222.914C300.267 222.904 304.538 221.767 308.885 217.419C310.031 216.273 311.594 214.061 312.359 212.504C313.664 209.846 313.75 209.271 313.747 203.172C313.745 197.627 313.591 196.337 312.694 194.396C311.108 190.959 308.864 188.726 305.388 187.125C302.251 185.679 302.247 185.679 291 185.572L279.75 185.465V204.194ZM399.193 204.202V222.922L402.471 222.922L405.75 222.923L405.633 214.297L405.514 205.672L408.013 208.398C409.387 209.898 412.477 213.775 414.88 217.013L419.25 222.902L423.723 222.912L428.196 222.922L426.635 221.297C425.777 220.403 422.485 216.427 419.322 212.462L413.57 205.252L416.16 204.055C421.123 201.762 423 199.108 423 194.381C423 190.445 421.818 188.414 418.606 186.832C416.45 185.77 415.525 185.664 407.721 185.577L399.193 185.482V204.202ZM414.164 190.27C416.889 191.654 417.663 196.039 415.681 198.868C414.501 200.553 411.161 201.898 408.125 201.911L405.5 201.922V195.705V189.488L406.875 189.275C408.92 188.958 412.558 189.454 414.164 190.27ZM301.328 190.985C304.51 192.622 306.291 195.515 307.009 200.209C308.282 208.535 305.353 215.341 299.379 217.938C297.276 218.853 295.783 219.09 291.918 219.127C289.26 219.151 286.911 218.998 286.698 218.785C286.158 218.246 285.798 199.422 286.229 194.245C286.508 190.899 286.765 189.925 287.418 189.728C287.876 189.59 290.649 189.537 293.582 189.61C298.12 189.723 299.275 189.928 301.328 190.985ZM75.42 200.297L77.425 204.922H73.225C68.457 204.922 68.695 205.429 71 200.172C71.603 198.797 72.306 197.134 72.562 196.477C72.8185 195.821 73.115 195.371 73.2215 195.477C73.3275 195.584 74.317 197.753 75.42 200.297ZM355.491 198.922C356.126 200.434 356.953 202.403 357.329 203.297L358.013 204.922H353.801H349.587L351.633 200.161C352.758 197.542 353.826 195.573 354.007 195.786C354.188 195.998 354.856 197.409 355.491 198.922Z" fill="#0066B3"/>
<path d="M593.51 4.33964C598.042 3.22914 604.675 1.79864 608.25 1.16014C615.98 -0.220861 617.5 -0.314361 617.5 0.590639C617.5 1.06014 614.364 1.89464 606.961 3.39414C601.165 4.56814 595.821 5.71464 595.086 5.94164C592.999 6.58664 598.988 5.95364 605.212 4.87114C613.765 3.38414 616.044 3.74014 608.656 5.40914C605.162 6.19814 604.882 6.34414 606 6.79514C606.874 7.14714 608.603 7.09514 611.75 6.62114C614.225 6.24814 616.925 5.95614 617.75 5.97214C619.226 6.00014 619.23 6.00714 618 6.42264C617.312 6.65514 615.42 6.99564 613.795 7.17914C612.008 7.38164 611.094 7.67114 611.484 7.91164C611.838 8.13064 611.973 8.56014 611.784 8.86564C611.575 9.20464 611.842 9.42164 612.47 9.42164C614.445 9.42164 613.482 10.3106 611.125 10.6636C608.364 11.0766 607.664 11.4051 608.474 11.9056C609.09 12.2866 606.388 13.4361 602.52 14.4386C601.294 14.7566 600.056 15.3366 599.77 15.7276C599 16.7801 586.186 21.8031 574.5 25.6336C558.423 30.9026 552.322 33.1086 536.236 39.4671C527.979 42.7311 520.506 45.5451 519.63 45.7206C517.272 46.1921 515.34 45.5856 515.633 44.4661C515.843 43.6636 515.665 43.6026 514.131 43.9486C512.267 44.3691 510.301 44.2151 506.125 43.3226C503.781 42.8221 503.499 42.6231 503.493 41.4666C503.478 38.5486 503.06 38.0086 501.028 38.2811C498.23 38.6566 497.083 37.8451 497.175 35.5556C497.221 34.4026 496.959 33.4406 496.5 33.0761C495.937 32.6291 495.88 32.2541 496.27 31.5761C497.106 30.1231 503.909 27.0806 508.25 26.2186C514.487 24.9801 518.431 23.9251 522.5 22.4081C524.562 21.6391 527.712 20.6341 529.5 20.1746C531.287 19.7151 533.89 18.6901 535.284 17.8961C538.088 16.2986 543.136 14.9406 546.312 14.9291C547.446 14.9251 549.359 14.5731 550.562 14.1466C554.421 12.7801 565.908 9.42164 566.724 9.42164C567.158 9.42164 567.904 9.20164 568.382 8.93314C569.725 8.17664 584.716 5.48614 585.01 5.94814C585.153 6.17364 588.978 5.44964 593.51 4.33964Z" fill="#F5821F"/>
<path d="M613.313 48.7441C616.436 47.7961 632.085 44.2086 636.501 43.4291C642.921 42.2956 645.664 42.1776 645.379 43.0466C645.255 43.4226 641.059 44.5001 634.855 45.7491C629.18 46.8916 624.247 47.9426 623.894 48.0846C622.298 48.7251 627.729 48.3281 632.251 47.4736C640.373 45.9386 641.001 45.8551 641.001 46.3171C641.001 46.5596 639.201 47.1691 637.001 47.6716C631.935 48.8286 631.732 49.6786 636.626 49.2441C644.683 48.5286 647.377 48.4211 645.251 48.8996C644.151 49.1476 642.144 49.4981 640.791 49.6791C639.249 49.8856 638.574 50.1576 638.98 50.4091C639.337 50.6296 639.474 51.0601 639.285 51.3656C639.076 51.7046 639.343 51.9216 639.971 51.9216C642.032 51.9216 640.934 52.8371 638.467 53.1761C636.619 53.4306 636.004 53.7096 636.196 54.2081C636.383 54.6971 635.317 55.2521 632.453 56.1566C630.251 56.8526 628.13 57.4216 627.741 57.4216C627.351 57.4216 627.14 57.7031 627.271 58.0466C627.428 58.4596 625.06 59.6531 620.291 61.5641C613.383 64.3331 593.011 71.4216 591.962 71.4216C591.15 71.4216 577.27 76.6331 563.001 82.2956C555.713 85.1876 548.858 87.7611 547.767 88.0146C545.296 88.5886 543.5 88.1776 543.502 87.0371C543.503 86.2836 543.034 86.1891 539.877 86.3051C537.883 86.3786 535.126 86.1366 533.751 85.7676C531.489 85.1611 531.247 84.9571 531.213 83.6341C531.148 81.1271 530.592 80.4286 528.926 80.7616C527.244 81.0981 524.843 80.0536 525.194 79.1386C525.32 78.8111 525.17 78.2911 524.862 77.9826C524.447 77.5681 524.453 77.2696 524.883 76.8391C525.327 76.3956 525.276 76.1176 524.672 75.6761C524.143 75.2891 523.992 74.7356 524.221 74.0166C524.669 72.6031 530.795 69.6841 534.86 68.9471C536.54 68.6426 539.032 68.0611 540.398 67.6556C541.764 67.2501 544.032 66.7001 545.439 66.4331C546.846 66.1666 548.983 65.4991 550.189 64.9501C551.394 64.4011 554.151 63.4721 556.315 62.8856C558.48 62.2991 561.388 61.1756 562.778 60.3891C565.808 58.6756 570.35 57.4216 573.528 57.4216C574.802 57.4216 577.173 56.9626 578.797 56.4021C586.068 53.8921 597.398 50.8521 604.712 49.4491C613.944 47.6781 613.151 47.7746 612.718 48.4751C612.495 48.8351 612.704 48.9291 613.313 48.7441Z" fill="#00A651"/>
</svg>
